<svg width="461" height="218" viewBox="0 0 461 218" fill="none" xmlns="http://www.w3.org/2000/svg">
<g clip-path="url(#clip0_2206_892)">
<path d="M16.4236 1.49463H251.692C256.01 1.49463 259.129 5.6099 257.939 9.75507L249.513 63.5626C248.713 66.3426 246.164 68.2558 243.265 68.2558H7.99689C3.67857 68.2558 0.559789 64.1405 1.74932 59.9953L10.176 6.18784C10.9757 3.40778 13.5247 1.49463 16.4236 1.49463Z" stroke="#EAE6E1" stroke-width="3"/>
<path d="M38.1649 46.4139L33.4067 22.5294H38.5048L41.4236 38.8908L49.8503 22.5294H53.6888L56.6777 39.0303L64.9744 22.5294H70.3823L58.0071 46.4139H53.7288L50.64 30.5905L42.4532 46.4139H38.1749H38.1649ZM72.0916 26.5649L72.8713 21.792H78.3792L77.6295 26.5649H72.0916ZM69.1028 46.4139L71.7518 29.7834H76.8798L74.2308 46.4139H69.1028ZM78.2292 46.4139L81.9978 22.5294H87.1258L84.9166 36.6588H84.9866L92.0938 29.7834H98.1115L89.8847 37.9841L96.0023 46.4239H90.1246L84.6167 39.0004H84.5468L83.3572 46.4239H78.2292V46.4139ZM100.141 26.5649L100.92 21.792H106.428L105.679 26.5649H100.141ZM97.1519 46.4139L99.8008 29.7834H104.929L102.28 46.4139H97.1519Z" fill="#EAE6E1"/>
<path d="M210.948 40.2261C209.019 39.9073 207.169 41.2126 206.849 43.1457C206.529 45.0887 207.849 46.9122 209.778 47.2311C211.727 47.5499 213.557 46.2446 213.877 44.3115C214.197 42.3784 212.887 40.545 210.948 40.2261ZM212.537 30.6604C214.486 30.9792 216.316 29.6739 216.636 27.7408C216.955 25.8077 215.646 23.9743 213.707 23.6554C211.777 23.3366 209.928 24.6419 209.608 26.575C209.288 28.518 210.608 30.3415 212.537 30.6604ZM208.189 56.7669C206.26 56.4481 204.41 57.7534 204.09 59.6865C203.771 61.6196 205.09 63.453 207.019 63.7719C208.969 64.0907 210.798 62.7854 211.118 60.8523C211.438 58.9192 210.128 57.0858 208.189 56.7669ZM202.191 20.1181C203.96 20.407 205.63 19.2113 205.92 17.4576C206.21 15.6939 205.03 14.0398 203.251 13.7409C201.491 13.4519 199.822 14.6377 199.522 16.4014C199.232 18.1551 200.432 19.8291 202.191 20.1181ZM200.492 30.3016C198.733 30.0127 197.063 31.1885 196.763 32.9621C196.473 34.7258 197.673 36.3899 199.432 36.6788C201.202 36.9678 202.861 35.782 203.161 34.0183C203.451 32.2546 202.271 30.6006 200.492 30.3016ZM225.662 24.6618C227.781 25.0106 229.78 23.5857 230.13 21.4732C230.48 19.3608 229.051 17.3579 226.942 17.0092C224.832 16.6604 222.823 18.0953 222.473 20.2078C222.123 22.3202 223.553 24.3131 225.672 24.6618H225.662ZM215.296 14.1096C217.245 14.4284 219.075 13.1231 219.394 11.19C219.714 9.24697 218.405 7.42349 216.466 7.10463C214.536 6.78577 212.687 8.0911 212.367 10.0242C212.047 11.9573 213.367 13.7907 215.296 14.1096ZM231.87 60.0452C229.58 59.6666 227.411 61.211 227.031 63.4929C226.772 65.0573 227.421 66.5519 228.591 67.4687L234.469 66.7811C234.898 66.243 235.208 65.5954 235.338 64.868C235.718 62.5861 234.169 60.4239 231.88 60.0452H231.87ZM224.173 33.5799C222.053 33.2312 220.054 34.6561 219.704 36.7685C219.354 38.8809 220.784 40.8738 222.903 41.2226C225.022 41.5713 227.021 40.1464 227.371 38.034C227.721 35.9215 226.292 33.9287 224.173 33.5799ZM221.414 50.1307C219.295 49.7819 217.295 51.2168 216.945 53.3292C216.596 55.4218 218.025 57.4346 220.144 57.7833C222.263 58.1321 224.263 56.6972 224.612 54.5947C224.962 52.4823 223.533 50.4794 221.424 50.1307H221.414ZM179.57 10.4825C178.161 10.2534 176.831 11.2099 176.591 12.6149C176.361 14.0199 177.301 15.3451 178.72 15.5743C180.13 15.8035 181.469 14.8669 181.709 13.4619C181.939 12.0569 180.979 10.7117 179.57 10.4825ZM197.733 46.8723C195.974 46.5834 194.294 47.7691 194.004 49.5129C193.714 51.2766 194.914 52.9406 196.673 53.2296C198.443 53.5186 200.112 52.3328 200.402 50.5691C200.692 48.8154 199.502 47.1613 197.733 46.8624V46.8723ZM174.052 43.604C172.643 43.3749 171.313 44.3115 171.073 45.7364C170.843 47.1314 171.783 48.4666 173.203 48.6958C174.612 48.925 175.961 47.9684 176.191 46.5834C176.431 45.1585 175.462 43.8332 174.052 43.604ZM250.602 20.2875C248.143 19.8789 245.804 21.543 245.394 24.0141C244.984 26.4654 246.654 28.797 249.123 29.2056C251.452 29.5942 253.631 28.1294 254.231 25.9173L254.371 25.0305C254.511 22.7487 252.921 20.6761 250.602 20.2974V20.2875ZM176.811 27.0533C175.402 26.8241 174.072 27.7607 173.842 29.1757C173.612 30.5806 174.552 31.9059 175.971 32.1351C177.381 32.3643 178.72 31.4276 178.96 30.0226C179.19 28.6177 178.231 27.2924 176.821 27.0533H176.811ZM245.084 53.399C242.625 52.9905 240.286 54.6545 239.876 57.1057C239.467 59.5769 241.136 61.8986 243.595 62.3071C246.074 62.7157 248.403 61.0516 248.813 58.5805C249.223 56.1193 247.553 53.7976 245.074 53.389L245.084 53.399ZM171.303 60.1548C169.894 59.9256 168.564 60.8822 168.324 62.2872C168.094 63.6922 169.034 65.0274 170.444 65.2665C171.853 65.4957 173.202 64.5391 173.432 63.1342C173.662 61.7292 172.703 60.394 171.293 60.1548H171.303ZM189.096 26.1365C190.676 26.3956 192.175 25.3294 192.445 23.7351C192.705 22.1608 191.635 20.6661 190.056 20.407C188.477 20.148 186.967 21.2042 186.697 22.7885C186.427 24.3828 187.517 25.8775 189.096 26.1365ZM234.639 43.4845C232.349 43.1058 230.18 44.6503 229.8 46.9421C229.421 49.2239 230.97 51.3862 233.259 51.7648C235.548 52.1435 237.717 50.599 238.097 48.3172C238.477 46.0254 236.928 43.8631 234.639 43.4845ZM191.855 9.58576C193.435 9.84483 194.934 8.76868 195.204 7.18435C195.464 5.60002 194.404 4.10536 192.815 3.83633C191.225 3.57725 189.716 4.6534 189.456 6.22777C189.196 7.80214 190.276 9.31672 191.855 9.57579V9.58576ZM187.297 36.9578C185.708 36.6987 184.208 37.755 183.938 39.3493C183.678 40.9336 184.758 42.4183 186.347 42.6873C187.927 42.9464 189.426 41.8802 189.686 40.3058C189.956 38.7115 188.886 37.2269 187.297 36.9578ZM184.538 53.5285C182.949 53.2695 181.449 54.3257 181.179 55.91C180.909 57.4943 181.999 58.999 183.578 59.258C185.158 59.5171 186.657 58.441 186.927 56.8566C187.187 55.2823 186.117 53.7876 184.538 53.5285ZM160.857 50.2602C159.638 50.0609 158.458 50.8979 158.258 52.1136C158.048 53.3492 158.898 54.515 160.118 54.7242C161.357 54.9335 162.517 54.0865 162.727 52.851C162.927 51.6353 162.107 50.4595 160.867 50.2602H160.857ZM142.714 13.8704C141.835 13.721 140.995 14.3188 140.855 15.1957C140.705 16.0825 141.315 16.9096 142.185 17.059C143.064 17.2085 143.904 16.6206 144.054 15.7338C144.204 14.8569 143.604 14.0199 142.724 13.8804L142.714 13.8704ZM134.438 63.5527C133.558 63.4032 132.718 63.9911 132.578 64.8779C132.428 65.7548 133.038 66.5918 133.908 66.7413C134.788 66.8907 135.627 66.2929 135.777 65.416C135.927 64.5292 135.317 63.7021 134.448 63.5527H134.438ZM137.197 47.0019C136.317 46.8524 135.477 47.4403 135.337 48.3172C135.197 49.194 135.787 50.031 136.667 50.1805C137.546 50.33 138.386 49.7321 138.536 48.8552C138.686 47.9784 138.076 47.1613 137.197 47.0118V47.0019ZM139.955 30.4312C139.076 30.2817 138.236 30.8796 138.096 31.7564C137.946 32.6333 138.546 33.4703 139.426 33.6098C140.305 33.7593 141.145 33.1614 141.295 32.2845C141.445 31.4077 140.835 30.5707 139.965 30.4312H139.955ZM158.108 66.801C157.029 66.6217 155.989 67.2494 155.619 68.2459H159.848C159.578 67.5085 158.938 66.9306 158.108 66.801ZM218.685 66.6914C217.185 66.4423 215.756 67.1 214.916 68.2459H221.174C220.594 67.4487 219.724 66.8608 218.685 66.6914ZM253.371 3.71676C250.912 3.30822 248.573 4.98223 248.163 7.44342C247.753 9.91458 249.423 12.2363 251.882 12.6448C254.031 13.0035 256.07 11.7879 256.84 9.85479L257.15 7.93167C257.03 5.86905 255.51 4.07547 253.371 3.71676ZM194.984 63.4231C193.225 63.1342 191.545 64.3299 191.255 66.0836C191.126 66.8708 191.305 67.6181 191.675 68.2558H197.233C197.433 67.917 197.573 67.5484 197.643 67.1398C197.933 65.3861 196.753 63.7221 194.974 63.4231H194.984ZM247.843 36.8482C245.384 36.4397 243.045 38.1037 242.635 40.5549C242.226 43.0261 243.895 45.3478 246.354 45.7563C248.833 46.1649 251.162 44.5008 251.572 42.0297C251.982 39.5784 250.312 37.2468 247.833 36.8382L247.843 36.8482ZM157.509 9.45622C157.689 8.39003 156.959 7.40356 155.909 7.23417C154.86 7.06478 153.85 7.76228 153.68 8.82846C153.51 9.87472 154.23 10.8811 155.279 11.0505C156.329 11.2199 157.339 10.5025 157.509 9.45622ZM163.606 33.6995C162.387 33.5002 161.207 34.3173 161.007 35.5528C160.807 36.7785 161.647 37.9443 162.867 38.1436C164.106 38.3528 165.266 37.5059 165.466 36.2902C165.675 35.0546 164.846 33.8988 163.606 33.6995ZM228.431 8.10107C230.55 8.44982 232.549 7.02492 232.899 4.91248C233.119 3.60715 232.649 2.34168 231.76 1.48474H226.392C225.802 2.04274 225.382 2.78011 225.232 3.63704C224.882 5.74948 226.312 7.74235 228.431 8.0911V8.10107ZM204.96 3.56729C206.529 3.82636 207.999 2.92957 208.529 1.49471H202.461C202.851 2.55093 203.771 3.368 204.96 3.56729ZM244.465 1.49471H239.966C240.436 1.79364 240.966 2.00289 241.546 2.10253C242.605 2.28189 243.635 2.03278 244.475 1.49471H244.465ZM168.394 5.03205C169.634 5.2413 170.793 4.41426 170.993 3.17868C171.093 2.56089 170.943 1.96303 170.604 1.49471H166.935C166.735 1.76374 166.585 2.0826 166.525 2.44132C166.315 3.6769 167.165 4.83276 168.384 5.03205H168.394ZM238.787 18.6533C241.076 19.032 243.245 17.4875 243.625 15.2056C244.005 12.9238 242.455 10.7615 240.166 10.3829C237.877 10.0043 235.708 11.5487 235.328 13.8306C234.948 16.1124 236.498 18.2747 238.787 18.6533ZM166.375 17.1387C165.156 16.9394 163.976 17.7764 163.776 18.9921C163.566 20.2277 164.416 21.4035 165.635 21.6028C166.875 21.812 168.035 20.965 168.244 19.7295C168.444 18.5138 167.625 17.338 166.385 17.1387H166.375ZM150.401 40.3357C149.352 40.1663 148.342 40.8838 148.162 41.94C147.992 42.9862 148.712 43.9926 149.762 44.162C150.811 44.3314 151.821 43.614 151.991 42.5677C152.171 41.5016 151.451 40.5051 150.391 40.3258L150.401 40.3357ZM147.642 56.9064C146.593 56.737 145.583 57.4545 145.413 58.5007C145.233 59.547 145.963 60.5534 147.013 60.7228C148.062 60.8922 149.072 60.1747 149.242 59.1285C149.412 58.0822 148.692 57.0758 147.642 56.9064ZM153.16 23.785C152.111 23.6156 151.101 24.333 150.931 25.3792C150.751 26.4454 151.481 27.4319 152.531 27.6013C153.58 27.7707 154.59 27.0732 154.76 26.007C154.93 24.9607 154.21 23.9543 153.16 23.785ZM237.397 26.9337C235.108 26.555 232.939 28.0995 232.559 30.3813C232.179 32.6831 233.729 34.8354 236.018 35.2141C238.307 35.5927 240.476 34.0482 240.856 31.7465C241.236 29.4646 239.687 27.3024 237.397 26.9237V26.9337Z" fill="#EAE6E1"/>
<path d="M217.745 177.654L222.323 147.951C222.593 146.446 221.783 145.111 220.674 144.174C215.486 138.993 210.298 133.821 205.11 128.65L216.256 59.0587C216.535 57.5242 215.676 56.1391 214.526 55.1826C211.807 52.4723 209.098 49.7719 206.379 47.0616C203.75 44.441 201.122 41.8204 198.493 39.1898C197.583 38.1933 196.493 37.2268 195.054 37.2766H149.762C148.632 37.2766 147.562 37.7948 146.863 38.6716L76.2603 127.574C75.8704 128.072 75.6105 128.65 75.5005 129.277L70.7224 158.981C70.5225 160.187 70.9623 161.442 71.852 162.269C74.0611 164.472 76.2603 166.674 78.4694 168.876C81.6881 172.084 84.9169 175.313 88.1356 178.521C89.1752 179.597 90.2848 180.843 91.9141 180.773H133.958L131.849 194.225C131.659 195.431 132.088 196.676 132.988 197.493C135.057 199.556 137.106 201.619 139.176 203.671C141.665 206.152 144.154 208.634 146.643 211.115C147.542 212.011 148.452 212.918 149.362 213.825C150.371 214.881 151.461 216.057 153.06 215.997H188.147C189.966 215.997 191.525 214.662 191.795 212.868L196.733 180.773H214.086C215.906 180.773 217.465 179.448 217.735 177.644L217.745 177.654Z" fill="#121212" stroke="#EAE6E1" stroke-width="4" stroke-linecap="round" stroke-linejoin="round"/>
<path d="M352.622 131.948C365.947 108.89 362.998 80.0834 342.476 63.2437C339.228 60.0053 335.979 56.7569 332.73 53.5185C320.925 40.5549 306.031 34.1976 285.978 34.1976C249.153 33.9585 225.602 57.5241 223.273 94.173C223.123 95.6677 224.053 96.8734 225.102 97.7901C228.841 101.517 232.569 105.233 236.298 108.96C237.447 110.096 238.587 111.262 239.746 112.398C240.426 113.095 241.126 113.763 241.806 114.46C241.316 116.882 278.581 115.128 279.741 115.636C279.001 116.513 278.241 117.4 277.442 118.317L212.587 192.382C210.838 194.414 211.827 196.925 213.767 198.41C214.666 199.317 215.576 200.214 216.486 201.12C220.184 204.817 223.883 208.504 227.601 212.211C228.221 212.828 228.841 213.456 229.47 214.074C230.39 215.09 231.45 216.067 232.939 216.027H346.605C348.424 216.027 349.963 214.712 350.253 212.928L355.671 179.298C355.881 178.053 355.401 176.767 354.452 175.93C351.453 172.941 348.464 169.942 345.465 166.963C343.486 164.99 341.507 163.007 339.528 161.034C336.619 158.164 336.519 157.227 332.12 157.506C341.407 148.2 348.304 139.64 352.642 131.988L352.622 131.948ZM289.637 96.1858C291.296 94.173 293.296 92.7581 295.675 91.9211C293.256 98.4477 290.217 102.384 285.049 109.139C285.519 103.679 287.048 99.3246 289.637 96.1858Z" fill="#121212" stroke="#EAE6E1" stroke-width="4" stroke-linecap="round" stroke-linejoin="round"/>
<path d="M458.121 56.0694C453.233 51.157 448.305 46.2744 443.407 41.372C441.657 39.9172 440.268 37.2766 437.759 37.2567H379.282C377.632 37.2567 376.183 38.3428 375.733 39.9272L366.277 72.7099C365.837 74.1647 366.407 75.7191 367.556 76.6757C371.285 80.4023 375.013 84.119 378.752 87.8457C380.111 89.2009 381.471 90.556 382.82 91.9112C383.89 92.8578 384.74 94.183 386.109 94.7111L370.115 194.215C369.945 195.281 370.245 196.377 370.955 197.194C372.504 198.779 374.094 200.333 375.663 201.908C379.392 205.634 383.12 209.351 386.859 213.078C388.158 214.293 389.328 216.067 391.327 216.007H430.982C432.801 216.007 434.35 214.682 434.63 212.898L458.981 59.0487C459.151 57.9826 458.841 56.8964 458.131 56.0794L458.121 56.0694Z" fill="#121212" stroke="#EAE6E1" stroke-width="4" stroke-linecap="round" stroke-linejoin="round"/>
<path d="M117.194 126.089L149.692 84.8563C149.981 84.4877 150.271 84.119 150.561 83.7503L142.664 126.089H117.194ZM200.102 160.047L204.68 130.344C204.84 129.277 204.53 128.201 203.83 127.384C203.131 126.567 202.101 126.099 201.021 126.099H185.048L198.612 41.4616C198.782 40.3954 198.482 39.3093 197.773 38.4823C197.073 37.6652 196.043 37.1869 194.964 37.1869H149.662C148.532 37.1869 147.462 37.705 146.763 38.5819L76.1702 127.484C75.7804 127.982 75.5205 128.56 75.4105 129.188L70.6324 158.891C70.4625 159.958 70.7623 161.054 71.4721 161.871C72.1818 162.688 73.2014 163.166 74.281 163.166H136.627L131.769 194.135C131.599 195.202 131.908 196.288 132.608 197.105C133.308 197.922 134.338 198.4 135.417 198.4H170.503C172.323 198.4 173.882 197.065 174.152 195.271L179.09 163.176H196.443C198.263 163.176 199.822 161.851 200.092 160.047H200.102Z" fill="#121212" stroke="#EAE6E1" stroke-width="4" stroke-linecap="round" stroke-linejoin="round"/>
<path d="M334.989 114.351C340.347 104.885 343.076 94.8605 343.076 84.5773C343.076 69.6806 337.698 57.3747 327.102 48.0281C316.636 38.7912 302.772 34.1079 285.898 34.1079C267.695 34.1079 252.871 39.4687 241.826 50.0409C230.81 60.5832 224.542 75.4101 223.213 94.0833C223.143 95.0997 223.493 96.1061 224.202 96.8634C224.902 97.6107 225.882 98.0392 226.901 98.0392H263.577C265.586 98.0392 267.236 96.4249 267.276 94.4221C267.406 87.5965 268.995 82.2756 272.024 78.6087C274.893 75.1212 278.771 73.4272 283.889 73.4272C287.958 73.4272 291.066 74.5133 293.395 76.7453C295.675 78.9375 296.784 81.8571 296.784 85.6535C296.784 89.1609 295.455 93.2662 292.856 97.8299C290.047 102.752 284.839 109.628 277.392 118.237L212.537 192.302C211.577 193.388 211.357 194.942 211.957 196.258C212.557 197.573 213.876 198.42 215.326 198.42H328.991C330.801 198.42 332.35 197.105 332.64 195.321L338.058 161.691C338.228 160.625 337.928 159.539 337.218 158.712C336.519 157.895 335.489 157.417 334.399 157.417H301.332C300.273 157.417 298.403 157.486 295.615 157.616L308.43 145.768C320.835 134.18 329.781 123.628 335.009 114.391L334.989 114.351Z" fill="#121212" stroke="#EAE6E1" stroke-width="4" stroke-linecap="round" stroke-linejoin="round"/>
<path d="M440.478 38.4724C439.778 37.6553 438.749 37.177 437.669 37.177H379.192C377.543 37.177 376.093 38.2631 375.644 39.8474L366.187 72.6301C365.867 73.7462 366.087 74.9419 366.787 75.8686C367.487 76.7952 368.576 77.3433 369.746 77.3433H388.798L370.026 194.135C369.856 195.202 370.156 196.288 370.865 197.115C371.565 197.932 372.595 198.41 373.674 198.41H413.329C415.148 198.41 416.698 197.085 416.977 195.301L441.338 41.4517C441.508 40.3855 441.198 39.2994 440.488 38.4823L440.478 38.4724Z" fill="#121212" stroke="#EAE6E1" stroke-width="4" stroke-linecap="round" stroke-linejoin="round"/>
</g>
<defs>
<clipPath id="clip0_2206_892">
<rect width="461" height="218" fill="white"/>
</clipPath>
</defs>
</svg>
