<svg width="16" height="16" viewBox="0 0 16 16" fill="none" xmlns="http://www.w3.org/2000/svg">
<g clip-path="url(#clip0_2090_3880)">
<path d="M15.9997 -0.000325564C15.1766 0.433422 14.3853 0.909487 13.6003 1.39825C13.2025 1.16974 12.7434 1.03644 12.2504 1.03644H3.74683C2.25093 1.03644 1.03432 2.25305 1.03432 3.74895V12.2525C1.03432 12.7413 1.1655 13.1983 1.3919 13.594C0.903139 14.3662 0.41438 15.1893 -0.00244141 15.9997C0.807926 15.5829 1.63099 15.0941 2.40327 14.6053C2.79893 14.8317 3.25596 14.9629 3.74472 14.9629H12.2483C13.7442 14.9629 14.9608 13.7463 14.9608 12.2504V3.74683C14.9608 3.25596 14.8275 2.7947 14.599 2.39692C15.0877 1.61195 15.5638 0.820621 15.9976 -0.00244141L15.9997 -0.000325564ZM2.51753 3.74683C2.51753 3.06765 3.06976 2.51541 3.74895 2.51541H12.2525C12.3096 2.51541 12.3668 2.52176 12.4218 2.52811C10.8539 4.09594 8.51382 6.43607 7.47706 7.47283C6.38105 8.5646 4.10229 10.8539 2.53234 12.4176C2.52387 12.3625 2.51964 12.3054 2.51964 12.2483V3.74683H2.51753ZM13.4818 12.2504C13.4818 12.9296 12.9296 13.4818 12.2504 13.4818H3.74683C3.6897 13.4818 3.63258 13.4755 3.57756 13.4691C5.14329 11.8971 7.4157 9.6331 8.52229 8.5244L13.467 3.57968C13.4755 3.63469 13.4797 3.69182 13.4797 3.74895V12.2525L13.4818 12.2504Z" fill="#EAE6E1"/>
</g>
<defs>
<clipPath id="clip0_2090_3880">
<rect width="16" height="16" fill="white"/>
</clipPath>
</defs>
</svg>
