<svg width="167" height="80" viewBox="0 0 167 80" fill="none" xmlns="http://www.w3.org/2000/svg">
<g clip-path="url(#clip0_11_15)">
<path d="M87.3617 0.991943C59.5368 0.991943 35.0847 7.46992 21.0952 17.247C17.6134 19.6801 14.7791 22.3177 12.7032 25.1117C12.6842 25.1374 12.6669 25.1632 12.6478 25.1873C12.6478 25.1873 12.6478 25.1873 12.6461 25.189C10.4542 26.7818 8.53582 28.4589 6.92218 30.2081C5.56825 31.6738 4.42901 33.1911 3.52177 34.7496C1.85619 37.6071 0.969727 40.6055 0.969727 43.6967C0.969727 63.1856 36.1962 78.9854 79.6502 78.9854C106.706 78.9854 130.573 72.8596 144.732 63.5327C148.793 60.8573 152.056 57.9191 154.366 54.7866C158.253 51.9617 161.276 48.874 163.272 45.5937C165.078 42.6262 166.042 39.5041 166.042 36.2806C166.042 16.7917 130.816 0.991943 87.3617 0.991943Z" fill="#EAE6E1"/>
<path d="M166.042 36.2806C166.042 39.5041 165.078 42.6279 163.272 45.5937C161.278 48.8705 158.255 51.9617 154.366 54.7849C156.939 51.2985 158.331 47.5698 158.331 43.695C158.331 24.2061 123.104 8.4081 79.6504 8.4081C58.1017 8.4081 38.5753 12.2932 24.3642 18.5873C19.899 20.565 15.9601 22.7799 12.6445 25.1873C12.6618 25.1615 12.6826 25.1357 12.7017 25.1099C14.7793 22.316 17.6136 19.6801 21.0936 17.2453C35.0866 7.46992 59.537 0.991943 87.3619 0.991943C130.816 0.991943 166.042 16.7917 166.042 36.2806Z" fill="url(#paint0_linear_11_15)"/>
<path d="M0.969727 43.696C0.969727 40.4724 1.9341 37.3486 3.73992 34.3828C5.73446 31.106 8.75744 28.0148 12.6461 25.1917C10.0733 28.6781 8.68126 32.4068 8.68126 36.2815C8.68126 55.7704 43.9077 71.5684 87.3617 71.5684C108.91 71.5684 128.437 67.6834 142.648 61.3892C147.113 59.4115 151.052 57.1966 154.368 54.7893C154.35 54.8151 154.329 54.8408 154.31 54.8666C152.233 57.6605 149.398 60.2964 145.918 62.7312C131.927 72.5083 107.477 78.9863 79.6519 78.9863C36.1962 78.9846 0.969727 63.1849 0.969727 43.696Z" fill="url(#paint1_linear_11_15)"/>
<path d="M60.077 59.8132H51.9067C51.3682 59.8132 50.8574 59.5795 50.506 59.1723C50.1545 58.7668 50.0021 58.229 50.0853 57.6997L51.0392 51.653H37.6679C37.1277 51.653 36.6152 51.4194 36.2654 51.0104C35.9157 50.6032 35.7633 50.0653 35.8482 49.5344L36.9632 42.6543C37.0134 42.345 37.1433 42.0529 37.3389 41.8089L53.78 21.2169C54.1315 20.777 54.6578 20.5244 55.224 20.5244H65.7715C66.3117 20.5244 66.8224 20.7581 67.1739 21.1671C67.5254 21.576 67.6777 22.1138 67.5912 22.6431L64.6149 41.1182H67.1826C67.721 41.1182 68.23 41.3501 68.5815 41.7557C68.933 42.1629 69.0871 42.6973 69.004 43.2248L67.9392 50.1049C67.8006 51.0035 67.0337 51.6565 66.1178 51.6565H62.9199L61.8967 58.265C61.7582 59.1637 60.9912 59.8167 60.0753 59.8167L60.077 59.8132ZM52.0486 57.863H59.9731L61.2353 49.7045H66.0139L67.0406 43.065H62.3105L65.6278 22.473H55.2811L38.8971 42.9946L37.8098 49.7045H53.3333L52.0469 57.863H52.0486ZM54.4085 43.065H45.6391L54.457 31.9373C54.5262 31.8514 54.592 31.7672 54.6578 31.683L57.1371 28.5231L54.4085 43.0633V43.065ZM49.6836 41.1147H52.7775L53.7367 36.0011L49.6836 41.1147Z" fill="#121212"/>
<path d="M96.972 59.8137H70.5028C69.7808 59.8137 69.1229 59.3927 68.8251 58.7415C68.5273 58.0885 68.6416 57.3204 69.116 56.7809L84.2187 39.6289C85.9103 37.6855 87.0841 36.1493 87.7057 35.0634C88.2199 34.1647 88.4935 33.3554 88.4935 32.723C88.4935 31.9223 88.2147 31.5615 88.0052 31.3604C87.7836 31.1474 87.3819 30.8656 86.4747 30.8656C85.5674 30.8656 84.9459 31.1336 84.4698 31.7092C83.9105 32.3862 83.6127 33.4155 83.5885 34.7712C83.5694 35.761 82.7436 36.5669 81.7463 36.5669H73.2037C72.6947 36.5669 72.203 36.3555 71.855 35.9844C71.507 35.6132 71.3286 35.1115 71.365 34.608C71.694 30.0322 73.2539 26.3877 75.9999 23.7724C78.7632 21.1434 82.4441 19.8118 86.9439 19.8118C91.12 19.8118 94.5671 20.9785 97.1901 23.281C99.879 25.6402 101.242 28.7349 101.242 32.4773C101.242 35.0307 100.566 37.5119 99.2332 39.8522C97.9658 42.0757 95.8224 44.5999 92.86 47.3526L91.7588 48.3664H98.2359C98.7778 48.3664 99.2886 48.6001 99.6383 49.009C99.988 49.418 100.14 49.9558 100.054 50.485L98.7917 58.2758C98.6462 59.1676 97.881 59.8137 96.972 59.8137ZM70.7711 57.8634H96.8681L98.0922 50.3149H90.5347C90.3079 50.3149 89.8872 50.3287 89.2501 50.3596L86.563 50.485L91.5199 45.9247C94.3334 43.3112 96.3539 40.9434 97.5226 38.8917C98.6878 36.8469 99.2782 34.687 99.2782 32.4756C99.2782 29.3157 98.1389 26.7142 95.8899 24.7398C93.6374 22.7621 90.6282 21.7603 86.9456 21.7603C82.9704 21.7603 79.7448 22.9099 77.3607 25.1797C75.0009 27.4255 73.647 30.6009 73.3353 34.6166H81.6286C81.6788 32.8674 82.1237 31.4721 82.9531 30.4721C83.8066 29.4394 84.9926 28.917 86.4764 28.917C87.6745 28.917 88.6493 29.2675 89.3713 29.9583C90.095 30.6508 90.4603 31.5804 90.4603 32.723C90.4603 33.7059 90.1088 34.8176 89.4163 36.0256C88.7324 37.2215 87.4823 38.8642 85.7042 40.9056L70.7729 57.8617L70.7711 57.8634Z" fill="#121212"/>
<path d="M116.62 59.8135H107.385C106.845 59.8135 106.334 59.5798 105.983 59.1708C105.631 58.7619 105.481 58.2241 105.565 57.6948L109.754 31.7743H106.469C105.894 31.7743 105.344 31.5011 104.997 31.0458C104.651 30.5887 104.539 29.989 104.698 29.4392L106.902 21.846C107.129 21.0676 107.856 20.5229 108.673 20.5229H122.292C122.832 20.5229 123.343 20.7566 123.693 21.1639C124.043 21.5711 124.197 22.1072 124.112 22.6365L118.442 58.2687C118.3 59.164 117.534 59.8118 116.622 59.8118L116.62 59.8135ZM107.527 57.8632H116.516L122.148 22.4732H108.765L106.632 29.8258H112.06L107.529 57.8632H107.527Z" fill="#121212"/>
<path d="M159.304 43.6966C159.285 49.824 155.457 55.1026 151.357 59.3365C149.279 61.4345 146.975 63.3195 144.447 64.8556C143.675 65.3196 142.701 65.9708 141.924 66.3798C139.943 67.4898 137.455 68.7751 135.36 69.6772C134.516 70.026 133.487 70.502 132.663 70.8353C131.977 71.1051 130.61 71.6154 129.924 71.8835C105.699 80.7121 75.8809 81.9269 50.5648 77.5126C35.7148 74.7547 19.1093 69.8525 7.81032 59.4757C-0.335785 51.8293 -2.86705 41.9319 3.87145 32.3971C6.09799 29.0601 9.35297 26.7061 12.5681 24.4053C15.7539 22.1354 19.0764 20.0305 22.6101 18.338C26.1611 16.6901 29.8178 15.2897 33.5333 14.0886C65.8424 3.55375 118.353 4.40946 146.916 24.151C153.33 28.6993 159.317 35.4573 159.3 43.6983L159.304 43.6966ZM157.359 43.6966C157.323 36.0828 151.658 29.9639 145.742 25.7696C117.846 6.61404 65.7126 5.66726 34.141 15.9427C31.4332 16.7967 28.6751 17.8173 26.0572 18.9239C21.689 20.802 17.2584 22.7574 13.3715 25.5136C10.2948 27.6992 7.75492 30.5739 5.48336 33.5277C0.768829 39.9747 0.799994 47.4046 5.48336 53.8671C11.9673 62.749 23.8705 68.0878 34.1427 71.4419C60.7574 79.865 94.1227 80.0282 121.023 72.6808C122.273 72.2924 123.914 71.8508 125.156 71.4384L127.881 70.5209C128.108 70.4435 128.336 70.3714 128.561 70.2889C129.252 70.0312 129.943 69.7579 130.575 69.5225C135.918 67.5087 141.095 64.8935 145.771 61.6613C152.191 57.3519 157.396 51.8378 157.361 43.6983L157.359 43.6966Z" fill="#121212"/>
<path d="M166.999 36.2799C167.054 46.8319 157.727 53.7463 149.54 58.7964C146.209 60.8567 142.652 62.52 138.999 63.9221C133.557 66.0184 127.868 67.6731 122.177 68.9206C103.142 73.0497 83.3477 73.6098 64.0498 71.0393C47.1101 68.6611 24.4291 62.666 12.9536 49.3595C9.1861 44.9487 6.81066 39.0618 8.01569 33.2471C8.84502 29.307 11.1166 25.8619 13.6634 22.8239C18.6671 16.6862 25.8211 12.7977 32.9942 9.69786C41.9887 5.91246 51.532 3.50169 61.1636 1.97241C89.7347 -2.52609 130.33 -0.0242577 154.611 16.7601C161.024 21.2998 167.009 28.0458 167.001 36.2799H166.999ZM165.087 36.2799C165.056 28.6592 159.393 22.5284 153.473 18.3254C130.254 2.34012 91.7448 -0.227015 64.3355 3.55496C53.8867 5.00863 43.5123 7.44002 33.7733 11.5158C27.6252 14.0933 21.8165 17.4697 16.7591 21.7843C11.6931 26.0131 8.74807 32.4017 9.91155 38.9759C11.8178 48.9643 22.4952 55.8083 31.1693 59.8497C56.875 71.474 91.4124 72.9156 118.931 67.6044C127.39 65.9566 135.749 63.4856 143.601 59.9356C150.521 56.9699 157.386 52.8185 161.578 46.4797C163.65 43.452 165.089 39.9605 165.089 36.2764L165.087 36.2799Z" fill="#121212"/>
</g>
<defs>
<linearGradient id="paint0_linear_11_15" x1="49.8863" y1="-12.2372" x2="135.594" y2="74.1229" gradientUnits="userSpaceOnUse">
<stop stop-color="#17A583"/>
<stop offset="0.1" stop-color="#36AB75"/>
<stop offset="0.35" stop-color="#7BB857"/>
<stop offset="0.57" stop-color="#B2C340"/>
<stop offset="0.76" stop-color="#DACB2F"/>
<stop offset="0.91" stop-color="#F3D024"/>
<stop offset="1" stop-color="#FCD221"/>
</linearGradient>
<linearGradient id="paint1_linear_11_15" x1="117.127" y1="92.2137" x2="31.4179" y2="5.85366" gradientUnits="userSpaceOnUse">
<stop stop-color="#17A583"/>
<stop offset="0.1" stop-color="#36AB75"/>
<stop offset="0.35" stop-color="#7BB857"/>
<stop offset="0.57" stop-color="#B2C340"/>
<stop offset="0.76" stop-color="#DACB2F"/>
<stop offset="0.91" stop-color="#F3D024"/>
<stop offset="1" stop-color="#FCD221"/>
</linearGradient>
<clipPath id="clip0_11_15">
<rect width="167" height="80" fill="white"/>
</clipPath>
</defs>
</svg>
