<svg width="16" height="16" viewBox="0 0 16 16" fill="none" xmlns="http://www.w3.org/2000/svg">
<path d="M6.60752 6.59345C5.7957 7.40722 5.79786 8.72691 6.61183 9.53853C7.4258 10.3501 8.74581 10.348 9.55762 9.53422C10.3673 8.7226 10.3673 7.40722 9.55762 6.59345C8.73289 5.80121 7.43226 5.80121 6.60752 6.59345Z" fill="#F4EFED"/>
<path d="M14.6774 8.00007C15.0371 7.35422 15.3428 6.67177 15.584 5.96994C16.2946 3.8494 16.09 2.08193 15.0069 0.992591C13.5814 -0.426127 10.9091 -0.296956 8.01495 1.32413C5.04761 -0.320638 2.43343 -0.441196 1.00576 1.00766C-0.0752311 2.097 -0.2798 3.86447 0.430809 5.98717C0.667678 6.68038 0.969149 7.35637 1.3223 7.99791C0.962689 8.64377 0.656911 9.32621 0.415735 10.028C-0.294874 12.1486 -0.0903047 13.9161 0.997142 15.0118C1.6776 15.6448 2.58848 16 3.51873 16C3.57256 16 3.6264 16 3.68023 15.9957C5.20266 15.9117 6.69278 15.4553 7.99987 14.6717C9.30696 15.4553 10.7992 15.9117 12.3238 15.9957C13.3079 16.0301 14.2726 15.6663 14.9918 14.9903C16.0728 13.901 16.2774 12.1335 15.5668 10.013C15.3299 9.31975 15.0284 8.64376 14.6753 8.00007H14.6774ZM9.5546 13.7201C10.3578 13.1475 11.1158 12.5059 11.8092 11.8063C12.509 11.1131 13.1529 10.3553 13.7278 9.55441C13.8785 9.88165 14.0121 10.2196 14.1283 10.5576C14.5999 12.0022 14.5246 13.2616 13.9259 13.929C13.1249 14.7191 11.4689 14.6329 9.5546 13.7201ZM14.1283 5.43604C14.0121 5.77619 13.8785 6.11203 13.7278 6.44142C13.1529 5.64056 12.509 4.88492 11.8092 4.1917C11.1158 3.49418 10.3621 2.85264 9.56321 2.27568C10.4289 1.86018 11.3806 1.61476 12.3367 1.56525H12.3432C12.9203 1.51573 13.5017 1.70518 13.9281 2.07116C14.5418 2.69118 14.615 3.92045 14.1283 5.43604ZM12.8363 7.98715C12.2054 8.95162 11.4711 9.85366 10.6528 10.6653C9.8453 11.4812 8.94735 12.211 7.98695 12.8396C6.05108 11.5652 4.42745 9.93762 3.15912 7.99791C4.43606 6.06036 6.064 4.43282 8.00202 3.15619C8.96242 3.78697 9.85822 4.51893 10.67 5.33055C11.4797 6.13571 12.2097 7.02914 12.8385 7.985L12.8363 7.98715ZM4.19273 4.1917C3.49504 4.88276 2.85119 5.63841 2.27839 6.43711C2.13842 6.12064 2.01353 5.79556 1.90371 5.46833L1.85418 5.32194H1.84126C1.40628 3.91399 1.48811 2.76437 2.07382 2.07116C2.50019 1.69657 3.06868 1.50066 3.63286 1.53511C4.60402 1.59108 5.56657 1.84511 6.44084 2.27568C5.64194 2.85264 4.88611 3.49634 4.19273 4.1917ZM1.87141 10.5619C1.98769 10.2218 2.12335 9.88595 2.27409 9.55657C2.84903 10.3574 3.49289 11.1131 4.19058 11.8063C4.88396 12.5059 5.63979 13.1475 6.44084 13.718C4.51573 14.6093 2.89641 14.6911 2.06736 13.9247C1.45581 13.3025 1.38475 12.0775 1.86925 10.5619H1.87141Z" fill="#F4EFED"/>
</svg>
