<svg width="20" height="20" viewBox="0 0 20 20" fill="none" xmlns="http://www.w3.org/2000/svg">
<path d="M9.98493 1.41916C10.0085 1.49212 10.0226 1.52742 10.032 1.56272C10.3825 3.32078 10.7378 5.07884 11.0837 6.83926C11.2437 7.65357 11.2037 8.46552 11.0201 9.27277C11.0131 9.30572 11.006 9.34102 11.0107 9.37868C11.2484 8.97388 11.526 8.60438 11.8907 8.30784C12.053 8.17604 12.2224 8.0466 12.4012 7.94069C13.7329 7.15227 15.0669 6.36856 16.3986 5.58484C16.4174 5.57308 16.4386 5.56366 16.4762 5.56366C16.4786 5.56366 16.4809 5.56366 16.4833 5.56366C15.5069 7.16875 14.6575 8.84914 13.5917 10.393C13.9446 10.2754 14.3187 10.2165 14.7022 10.2165C14.8104 10.2165 14.9187 10.2212 15.0293 10.2306C15.8927 10.3036 16.7562 10.3883 17.6173 10.4683C17.9255 10.4966 18.2337 10.5272 18.5749 10.5601C18.516 10.6025 18.4878 10.6284 18.4549 10.6472C17.4738 11.1744 16.495 11.7039 15.5139 12.2311C14.9446 12.5371 14.3587 12.6924 13.7588 12.6924C13.387 12.6924 13.0082 12.6336 12.6247 12.5112C12.6153 12.5088 12.6036 12.5065 12.5988 12.5065C12.5988 12.5065 12.5988 12.5065 12.6036 12.5065C13.107 13.5138 13.6176 14.5352 14.1493 15.599C14.0505 15.5707 13.9987 15.559 13.9517 15.5425C13.1565 15.253 12.3612 14.9588 11.5636 14.674C11.0507 14.4905 10.6366 14.1892 10.3449 13.7232C10.3355 13.7091 10.3214 13.702 10.2861 13.6715V18.5903H9.69083V13.6832C9.52849 13.8668 9.39909 14.0645 9.22498 14.201C8.99912 14.3775 8.74972 14.5422 8.48386 14.6458C7.6604 14.9659 6.82516 15.2554 5.99229 15.5566C5.95464 15.5707 5.91465 15.5754 5.8323 15.5919C6.35696 14.5375 6.86516 13.5161 7.36395 12.5135C7.17102 12.5512 6.93574 12.6124 6.69812 12.6453C6.52872 12.6689 6.35932 12.683 6.19462 12.683C5.62526 12.683 5.07941 12.5394 4.55945 12.2664C3.536 11.7275 2.51725 11.1767 1.49851 10.6307C1.47733 10.619 1.45851 10.6048 1.39969 10.5648C1.6585 10.539 1.87966 10.5131 2.10317 10.4919C3.02075 10.4048 3.94068 10.3177 4.85825 10.2353C4.99001 10.2236 5.11941 10.2165 5.25117 10.2165C5.58291 10.2165 5.91464 10.2565 6.23933 10.3483C6.27932 10.3601 6.32167 10.3671 6.35932 10.3766C5.31469 8.82325 4.46064 7.16169 3.50777 5.54719C3.55953 5.57308 3.61129 5.59896 3.6607 5.62721C4.94531 6.38268 6.23227 7.13815 7.51688 7.89598C8.10507 8.24194 8.33093 8.47494 8.94265 9.33161C8.9003 8.8915 8.83207 8.41139 8.80854 7.92657C8.77325 7.18993 8.96618 6.47682 9.10734 5.76136C9.38497 4.34691 9.67201 2.93481 9.95669 1.52271C9.9614 1.49918 9.96846 1.47799 9.98728 1.4121M9.98728 0C9.98728 0 9.97081 0 9.96375 0C9.34262 0.00941398 8.80149 0.425983 8.62973 1.02377L8.61797 1.06378C8.60621 1.10379 8.58738 1.16263 8.57327 1.24029L8.33564 2.42175C8.13095 3.44316 7.9239 4.46458 7.72392 5.486C7.69804 5.61309 7.67216 5.73782 7.64628 5.86491C7.61805 5.99906 7.58981 6.13556 7.56158 6.27677C6.69576 5.76606 5.82995 5.25771 4.96413 4.74935L4.38064 4.40574C4.31947 4.37044 4.2583 4.33749 4.19713 4.3069L4.16654 4.29042C3.9595 4.18216 3.73599 4.13038 3.51483 4.13038C3.13603 4.13038 2.76429 4.28336 2.49137 4.57049C2.05847 5.02707 1.97847 5.71664 2.3008 6.2603C2.60901 6.78513 2.91722 7.32878 3.21367 7.85361C3.4113 8.20193 3.60894 8.55495 3.81127 8.90798C3.34543 8.95034 2.87958 8.99506 2.41609 9.03742L1.98082 9.07743C1.8279 9.09155 1.67261 9.10803 1.50792 9.12685L1.26558 9.15274C0.675041 9.21393 0.185666 9.63756 0.0421475 10.2142C-0.101371 10.7908 0.1292 11.3933 0.618575 11.7275L0.651513 11.751C0.689157 11.7769 0.752682 11.8216 0.842087 11.8687L1.70555 12.3323C2.42785 12.7183 3.17368 13.1184 3.91244 13.5091C4.29124 13.7091 4.6818 13.8574 5.07941 13.9539L4.90766 14.2998L4.58063 14.9588C4.33829 15.446 4.39711 16.0297 4.7312 16.458C5.00177 16.804 5.41586 17.0016 5.84406 17.0016C5.94523 17.0016 6.0464 16.9899 6.14757 16.9687L6.18992 16.9593C6.25344 16.9475 6.35932 16.9263 6.48401 16.8816C6.70047 16.804 6.91927 16.7263 7.13808 16.6463C7.51688 16.5121 7.90273 16.3733 8.29094 16.2297V18.5879C8.29094 19.3669 8.92383 20 9.70259 20H10.2978C11.0766 20 11.7095 19.3669 11.7095 18.5879V16.2226C12.0318 16.3403 12.3542 16.458 12.6788 16.5757C12.9471 16.6745 13.2129 16.771 13.4811 16.8699C13.5705 16.9028 13.6458 16.9216 13.7046 16.9381L13.7752 16.9569C13.9023 16.9922 14.0317 17.0111 14.1611 17.0111C14.5752 17.0111 14.9751 16.8275 15.2481 16.5004C15.6057 16.0697 15.6739 15.4695 15.4222 14.9682L14.921 13.9656C15.3539 13.8597 15.7774 13.6973 16.1915 13.4738C17.1726 12.9466 18.1537 12.4194 19.1348 11.8899C19.2525 11.8263 19.3372 11.7628 19.3866 11.7251L19.4124 11.7063C19.8901 11.3627 20.1042 10.7578 19.9512 10.1906C19.7983 9.62344 19.3066 9.20923 18.7207 9.1551L18.3843 9.12215C18.1702 9.10096 17.9655 9.08214 17.7608 9.06331L17.0526 8.99741C16.7679 8.97152 16.4786 8.94328 16.1868 8.91739C16.3562 8.62321 16.5233 8.32902 16.6903 8.03954C17.0173 7.46293 17.3585 6.8675 17.702 6.30031C17.9631 5.87197 17.9773 5.33773 17.7373 4.89527C17.4997 4.45281 17.0432 4.17275 16.5421 4.15627C16.5256 4.15627 16.5021 4.15627 16.488 4.15627C16.2056 4.15627 15.9374 4.22923 15.6951 4.37279L14.8528 4.86703C14.0434 5.34243 13.2341 5.81784 12.4247 6.2956C12.1824 5.06001 11.9307 3.80796 11.6883 2.59826L11.4272 1.28972C11.4036 1.17204 11.3731 1.08025 11.3519 1.02612L11.3401 0.988468C11.1519 0.404801 10.6084 0.00941398 9.99669 0.00941398L9.98728 0Z" fill="#F4EFED"/>
</svg>
