<?xml version="1.0" encoding="UTF-8"?>
<svg id="Capa_2" data-name="Capa 2" xmlns="http://www.w3.org/2000/svg" viewBox="0 0 61.21 61.21">
  <defs>
    <style>
      .cls-1 {
        fill: none;
      }

      .cls-2 {
        fill: #eae6e1;
      }
    </style>
  </defs>
  <g id="Capa_1-2" data-name="Capa 1">
    <g>
      <rect class="cls-1" width="61.21" height="61.21"/>
      <g>
        <path class="cls-2" d="M20.29,12.34c.55,0,1-.45,1-1s-.45-1-1-1H5.84c-.55,0-1,.45-1,1s.45,1,1,1h6.22v36.53h-6.22c-.55,0-1,.45-1,1s.45,1,1,1h14.45c.55,0,1-.45,1-1s-.45-1-1-1h-6.22V12.34h6.22Z"/>
        <path class="cls-2" d="M26.35,22.08h22.47c.55,0,1-.45,1-1s-.45-1-1-1h-22.47c-.55,0-1,.45-1,1s.45,1,1,1Z"/>
        <path class="cls-2" d="M55.37,29.61h-29.03c-.55,0-1,.45-1,1s.45,1,1,1h29.03c.55,0,1-.45,1-1s-.45-1-1-1Z"/>
        <path class="cls-2" d="M40.28,39.14h-13.94c-.55,0-1,.45-1,1s.45,1,1,1h13.94c.55,0,1-.45,1-1s-.45-1-1-1Z"/>
      </g>
    </g>
  </g>
</svg>