<?xml version="1.0" encoding="UTF-8"?>
<svg id="Capa_2" data-name="Capa 2" xmlns="http://www.w3.org/2000/svg" viewBox="0 0 61.21 61.21">
  <defs>
    <style>
      .cls-1 {
        fill: none;
      }

      .cls-2 {
        fill: #eae6e1;
      }
    </style>
  </defs>
  <g id="Capa_1-2" data-name="Capa 1">
    <g>
      <rect class="cls-1" width="61.21" height="61.21"/>
      <path class="cls-2" d="M54.53,11.11l-4.4-4.39c-1.19-1.19-2.77-1.84-4.45-1.84s-3.26.65-4.45,1.84l-4.66,4.66-26.05,26.05c-.11.11-.2.25-.25.41l-5.4,17.21c-.11.35-.02.74.25,1,.19.19.45.29.71.29.1,0,.2-.01.29-.04l17.28-5.33c.16-.05.3-.13.41-.25l26.05-26.05,4.66-4.66c2.45-2.45,2.45-6.44,0-8.89ZM19.32,40.52c-.14-1.12-.62-2.15-1.43-2.96-.87-.87-1.99-1.36-3.2-1.46l22.6-22.61,4.52,4.52-22.5,22.5ZM12.01,39.02s.05-.03.07-.05c1.21-1.21,3.18-1.21,4.39,0,.59.59.91,1.37.91,2.2s-.32,1.61-.91,2.19c-.2.2-.29.45-.29.71s.1.51.29.71c.39.39,1.02.39,1.41,0,1.21-1.21,3.18-1.21,4.39,0,.59.59.91,1.37.91,2.2s-.32,1.61-.91,2.19c-.02.02-.03.05-.04.07l-5.65,1.74-6.34-6.34,1.77-5.62ZM9.57,46.79l4.85,4.85-7.06,2.18,2.21-7.03ZM25.15,46.56c-.1-1.21-.59-2.33-1.46-3.2s-1.87-1.3-2.95-1.44l22.49-22.49,4.52,4.52-22.6,22.6ZM53.12,18.59l-3.96,3.95-10.46-10.46,3.96-3.95c.81-.81,1.89-1.26,3.03-1.26s2.22.45,3.03,1.26l4.4,4.39c1.67,1.67,1.67,4.39,0,6.07Z"/>
    </g>
  </g>
</svg>