<?xml version="1.0" encoding="UTF-8"?>
<svg id="Capa_2" data-name="Capa 2" xmlns="http://www.w3.org/2000/svg" viewBox="0 0 61.21 61.21">
  <defs>
    <style>
      .cls-1 {
        fill: none;
      }

      .cls-2 {
        fill: #eae6e1;
      }
    </style>
  </defs>
  <g id="Capa_1-2" data-name="Capa 1">
    <g>
      <rect class="cls-1" width="61.21" height="61.21"/>
      <g>
        <path class="cls-2" d="M52.97,41.16h-2.13v-2.68c0-1.51-1.19-2.74-2.66-2.74h-7.66c-1.47,0-2.66,1.23-2.66,2.74v2.68h-15.67v-19.43c2.49-1.35,4.19-3.99,4.19-7.02,0-4.4-3.58-7.97-7.97-7.97s-7.97,3.58-7.97,7.97c0,3.04,1.71,5.68,4.21,7.03v19.42h-6.41c-2.28,0-4.14,1.86-4.14,4.14v5.03c0,2.28,1.86,4.14,4.14,4.14h44.73c2.28,0,4.14-1.86,4.14-4.14v-5.03c0-2.28-1.86-4.14-4.14-4.14ZM39.86,38.48c0-.41.3-.74.66-.74h7.66c.37,0,.66.33.66.74v2.68h-8.99v-2.68ZM12.43,14.71c0-3.29,2.68-5.97,5.97-5.97s5.97,2.68,5.97,5.97-2.68,5.97-5.97,5.97-5.97-2.68-5.97-5.97ZM20.19,22.48v18.69h-3.54v-18.68c.57.13,1.15.2,1.76.2s1.21-.08,1.78-.21ZM55.12,50.33c0,1.18-.96,2.14-2.14,2.14H8.24c-1.18,0-2.14-.96-2.14-2.14v-5.03c0-1.18.96-2.14,2.14-2.14h44.73c1.18,0,2.14.96,2.14,2.14v5.03Z"/>
        <path class="cls-2" d="M16.36,46.89h-5.6c-.55,0-1,.45-1,1s.45,1,1,1h5.6c.55,0,1-.45,1-1s-.45-1-1-1Z"/>
        <path class="cls-2" d="M26.04,46.89h-5.6c-.55,0-1,.45-1,1s.45,1,1,1h5.6c.55,0,1-.45,1-1s-.45-1-1-1Z"/>
      </g>
    </g>
  </g>
</svg>