<svg width="36" height="36" viewBox="0 0 36 36" fill="none" xmlns="http://www.w3.org/2000/svg">
<path d="M35.9352 18.441C35.6938 17.4719 34.871 16.7599 33.8781 16.6571L33.4469 16.6136C33.1423 16.5819 32.8575 16.5503 32.5766 16.5226L31.7775 16.4474C30.832 16.3604 29.8866 16.2694 28.9372 16.1824C29.3604 15.4506 29.7718 14.7228 30.1793 14.0029C30.7213 13.0456 31.2791 12.0527 31.8447 11.0994C32.3828 10.1857 32.2522 9.0267 31.5243 8.25931C31.0654 7.77277 30.4364 7.51961 29.7995 7.51961C29.4277 7.51961 29.0519 7.60664 28.7038 7.78859L28.6444 7.82024C28.5336 7.87562 28.4229 7.93495 28.3161 7.99429L27.3429 8.56785C25.6577 9.55675 23.9725 10.5496 22.2873 11.5385C22.22 11.1865 22.1488 10.8463 22.0816 10.518C22.0341 10.2885 21.9827 10.0591 21.9391 9.82573C21.5673 7.94682 21.1915 6.07186 20.8117 4.1969L20.3924 2.10438C20.3647 1.96989 20.333 1.86705 20.3133 1.79585L20.2895 1.72069C20.0047 0.71201 19.0909 0.0158224 18.0426 0C18.0307 0 18.0228 0 18.0109 0H17.9951C17.9951 0 17.9753 0 17.9635 0C16.9151 0.0158224 16.0013 0.71201 15.7125 1.72069L15.6888 1.79585C15.669 1.86705 15.6374 1.96989 15.6097 2.10834L15.1904 4.1969C14.8145 6.07186 14.4348 7.95077 14.0629 9.82573C14.0194 10.0552 13.968 10.2846 13.9205 10.518C13.8533 10.8463 13.7781 11.1865 13.7148 11.5385C12.0296 10.5457 10.3444 9.55675 8.65915 8.56785L7.686 7.99429C7.57919 7.931 7.47238 7.87562 7.36161 7.82024L7.30227 7.78859C6.95415 7.60664 6.57834 7.51961 6.20648 7.51961C5.56958 7.51961 4.94455 7.77673 4.48171 8.25931C3.75382 9.0267 3.62327 10.1857 4.16128 11.0994C4.72697 12.0567 5.28476 13.0456 5.82672 14.0029C6.23418 14.7228 6.64559 15.4546 7.06887 16.1824C6.12341 16.2694 5.17795 16.3604 4.22853 16.4474L3.42944 16.5226C3.14461 16.5503 2.86374 16.578 2.55913 16.6136L2.12794 16.6571C1.13501 16.7599 0.312177 17.4719 0.0708664 18.441C-0.170444 19.4102 0.217235 20.4228 1.04006 20.9845L1.10336 21.028C1.17061 21.0755 1.28138 21.1506 1.4317 21.2337L2.99428 22.0723C4.30765 22.7764 5.66848 23.5082 7.01745 24.2162C7.76907 24.6118 8.54443 24.8926 9.33561 25.0627L8.31499 27.1117C7.90753 27.9306 8.00642 28.9076 8.56816 29.6275C9.02309 30.209 9.71933 30.5413 10.4393 30.5413C10.6094 30.5413 10.7795 30.5215 10.9496 30.4859C10.9813 30.478 11.009 30.474 11.0287 30.4701C11.1395 30.4503 11.3215 30.4147 11.5351 30.3356C11.9307 30.1932 12.3302 30.0508 12.7258 29.9084C13.4418 29.6512 14.1737 29.3902 14.9055 29.1212L14.7156 33.0966C14.68 33.8481 14.957 34.5958 15.4752 35.1416C15.9934 35.6875 16.7253 36 17.4808 36H18.5212C19.2768 36 20.0047 35.6875 20.5269 35.1416C21.0491 34.5958 21.326 33.8521 21.2864 33.0966L21.0965 29.1212C21.8284 29.3941 22.5602 29.6552 23.2762 29.9084C23.6718 30.0508 24.0714 30.1932 24.467 30.3356C24.6845 30.4147 24.8665 30.4503 24.9733 30.4701C24.9971 30.474 25.0208 30.478 25.0524 30.4859C25.2225 30.5215 25.3927 30.5413 25.5628 30.5413C26.2827 30.5413 26.979 30.2129 27.4339 29.6275C27.9956 28.9076 28.0945 27.9266 27.6871 27.1078L26.6665 25.0588C27.4616 24.8887 28.237 24.6078 28.9846 24.2123C30.3296 23.5042 31.6905 22.7724 33.0038 22.0683L34.5664 21.2298C34.7167 21.1506 34.8275 21.0715 34.8948 21.0241L34.958 20.9806C35.7848 20.4228 36.1725 19.4062 35.9272 18.4371L35.9352 18.441ZM33.4548 19.1372C31.5995 20.1301 29.7442 21.1309 27.8849 22.1119C26.9394 22.6103 25.9465 22.8674 24.91 22.8674C24.6094 22.8674 24.3008 22.8436 23.9923 22.8001C23.6995 22.7566 23.4068 22.6933 23.1417 22.638C23.1299 22.638 23.114 22.634 23.1022 22.634C22.9756 22.634 22.8846 22.7724 22.9439 22.8911L25.5667 28.16C25.4164 28.1283 25.3412 28.1204 25.274 28.0927C23.7589 27.5469 22.2398 27.0208 20.7405 26.4353C20.2579 26.2455 19.8029 25.9448 19.3915 25.6244C19.2491 25.5137 19.1265 25.3831 19.0078 25.2447C18.9524 25.1814 18.8812 25.1537 18.81 25.1537C18.6755 25.1537 18.545 25.2566 18.545 25.4187L18.9208 33.1994C18.9326 33.4249 18.7507 33.6148 18.5252 33.6148H17.4848C17.2593 33.6148 17.0773 33.4249 17.0892 33.1994L17.465 25.4187C17.465 25.2566 17.3345 25.1537 17.2 25.1537C17.1288 25.1537 17.0575 25.1814 17.0022 25.2447C16.8835 25.3871 16.7569 25.5176 16.6184 25.6244C16.207 25.9448 15.7521 26.2455 15.2695 26.4353C13.7702 27.0168 12.2472 27.5469 10.736 28.0927C10.6688 28.1165 10.5936 28.1244 10.4433 28.16L13.066 22.8911C13.1254 22.7685 13.0344 22.634 12.9078 22.634C12.8959 22.634 12.8801 22.634 12.8682 22.638C12.6032 22.6973 12.3105 22.7606 12.0177 22.8001C11.7092 22.8436 11.4046 22.8674 11.0999 22.8674C10.0635 22.8674 9.06661 22.6063 8.1251 22.1119C6.26187 21.1309 4.4105 20.1301 2.55518 19.1372C2.51562 19.1175 2.48397 19.0898 2.37716 19.0186C2.84792 18.9711 3.25142 18.9236 3.65492 18.888C5.32827 18.7298 6.99767 18.5716 8.67102 18.4213C8.90837 18.4015 9.14968 18.3896 9.38704 18.3896C9.99229 18.3896 10.5936 18.4648 11.183 18.6309C11.2582 18.6507 11.3333 18.6665 11.4006 18.6823C9.4978 15.858 7.94313 12.832 6.21044 9.89298C6.30538 9.94045 6.40032 9.98791 6.49131 10.0393C8.82925 11.4159 11.1712 12.7885 13.5091 14.165C14.3873 14.6832 14.8225 15.059 15.5662 16.044C15.6176 16.1112 15.6888 16.1428 15.76 16.1428C15.8945 16.1428 16.0211 16.036 16.0053 15.8739C15.9459 15.3399 15.8866 14.7821 15.8589 14.2244C15.7917 12.8834 16.1437 11.586 16.4009 10.2846C16.9072 7.71344 17.4294 5.14229 17.9437 2.57115C17.9516 2.52763 17.9674 2.48808 17.9991 2.36941C17.9991 2.37732 18.003 2.38523 18.007 2.39314C18.007 2.38523 18.0109 2.37732 18.0149 2.36941C18.0465 2.48808 18.0623 2.52763 18.0703 2.57115C18.5845 5.14229 19.1067 7.71344 19.6131 10.2846C19.8702 11.586 20.2223 12.8795 20.155 14.2244C20.1273 14.7821 20.068 15.3359 20.0087 15.8739C19.9889 16.036 20.1194 16.1428 20.2539 16.1428C20.3251 16.1428 20.3963 16.1112 20.4478 16.044C21.1915 15.063 21.6227 14.6832 22.5048 14.165C24.8428 12.7885 27.1847 11.4119 29.5226 10.0393C29.6136 9.98791 29.7086 9.94045 29.8035 9.89298C28.0669 12.832 26.5122 15.858 24.6133 18.6823C24.6806 18.6665 24.7558 18.6507 24.8309 18.6309C25.4243 18.4648 26.0216 18.3896 26.6269 18.3896C26.8643 18.3896 27.1016 18.4015 27.3429 18.4213C29.0163 18.5716 30.6857 18.7298 32.359 18.888C32.7625 18.9276 33.166 18.9711 33.6368 19.0186C33.53 19.0898 33.4983 19.1175 33.4588 19.1372H33.4548Z" fill="#EAE6E1"/>
</svg>
