<svg width="19" height="16" viewBox="0 0 19 16" fill="none" xmlns="http://www.w3.org/2000/svg">
<path d="M16.5675 2.74273H9.85311L8.80757 1.11903C8.35584 0.416895 7.59873 0 6.78435 0H2.43041C1.09008 0 0 1.12781 0 2.51454V13.4855C0 14.8722 1.09008 16 2.43041 16H16.5696C17.9099 16 19 14.8722 19 13.4855V5.25727C19 3.87054 17.9099 2.74273 16.5696 2.74273H16.5675ZM17.6724 13.4855C17.6724 14.1152 17.1761 14.6286 16.5675 14.6286H2.43041C1.82174 14.6286 1.32548 14.1152 1.32548 13.4855V2.51454C1.32548 1.88481 1.81962 1.37137 2.42828 1.37137H6.78435C7.15549 1.37137 7.49693 1.56226 7.70265 1.88042L8.94542 3.80911C9.06842 4 9.27414 4.1141 9.49682 4.1141H16.5654C17.174 4.1141 17.6703 4.62754 17.6703 5.25727V13.4855H17.6724Z" fill="#EAE6E1"/>
</svg>
