<svg width="18" height="18" viewBox="0 0 18 18" fill="none" xmlns="http://www.w3.org/2000/svg">
<path d="M9 18C4.03823 18 0 13.9618 0 9C0 4.03823 4.03823 0 9 0C13.9618 0 18 4.03823 18 9C18 13.9618 13.9618 18 9 18ZM1.44746 10.2765C1.85372 12.6253 3.35446 14.6855 5.46349 15.7911L6.64233 16.4615L6.16946 15.1717C5.70326 13.8996 5.43019 12.219 5.35249 10.1833V9.67267H1.34756L1.44524 10.2787L1.44746 10.2765ZM12.6098 10.1722C12.5298 12.2146 12.2568 13.8929 11.7928 15.1517L11.331 16.4149L12.521 15.7911C14.63 14.6855 16.1307 12.6253 16.537 10.2787L16.6591 9.65269H12.6098V10.1722ZM6.70893 10.2077C6.77553 11.664 7.13295 16.3794 8.98668 16.3794C10.8404 16.3794 11.1978 11.664 11.2644 10.2188L11.3399 9.68821H6.70893V10.2077ZM5.46793 2.22669C3.3589 3.33226 1.85816 5.39245 1.4519 7.73902L1.34756 8.34731H5.37469V7.82782C5.45461 5.7854 5.72768 4.10705 6.19166 2.8483L6.66675 1.59842L5.46793 2.22669ZM11.8283 2.83054C12.2945 4.10483 12.5676 5.78318 12.6453 7.81894V8.32955H16.6147L16.5747 7.7146V7.7035C16.1685 5.35693 14.6655 3.29452 12.5565 2.19117L11.3666 1.56734L11.8283 2.83054ZM8.97336 1.6406C7.12185 1.6406 6.76221 6.35594 6.69561 7.80118V8.33177H11.2511V7.81228C11.1845 6.35594 10.8271 1.6406 8.97336 1.6406Z" fill="#F4EFED"/>
</svg>
