<svg width="20" height="20" viewBox="0 0 20 20" fill="none" xmlns="http://www.w3.org/2000/svg">
<path d="M16.0558 8.36558C16.0408 9.93634 15.6416 11.3945 14.8371 12.7264C14.7406 12.887 14.7567 12.9673 14.8794 13.0945C16.1725 14.4265 17.4636 15.7625 18.7476 17.1038C19.5078 17.8976 19.4203 19.0845 18.5676 19.703C17.9241 20.1703 17.0825 20.0816 16.4862 19.4694C15.5179 18.4743 14.5576 17.471 13.5933 16.4718C13.2685 16.1349 12.9367 15.8032 12.621 15.4569C12.4953 15.3182 12.4078 15.3057 12.2459 15.41C10.9066 16.2767 9.44354 16.6887 7.86488 16.6658C4.22893 16.6115 1.00021 13.8935 0.201826 10.2138C-0.789615 5.63813 1.96651 1.16888 6.38777 0.182197C10.8653 -0.816997 15.3117 2.40483 15.9663 7.12128C16.0237 7.53431 16.0599 7.94734 16.0568 8.36558H16.0558ZM2.40793 8.33533C2.40793 11.5436 4.92575 14.1615 8.01872 14.1657C11.1117 14.1699 13.6386 11.5592 13.6456 8.35202C13.6526 5.13123 11.1268 2.50809 8.02275 2.51017C4.92977 2.51226 2.40994 5.12706 2.40894 8.33637L2.40793 8.33533Z" fill="#EAE6E1"/>
</svg>
