<svg width="167" height="80" viewBox="0 0 167 80" fill="none" xmlns="http://www.w3.org/2000/svg">
<path d="M87.3617 0.992053C59.5368 0.992053 35.0847 7.47003 21.0952 17.2471C17.6134 19.6802 14.7791 22.3178 12.7032 25.1118C12.6842 25.1375 12.6669 25.1633 12.6478 25.1874C12.6478 25.1874 12.6478 25.1874 12.6461 25.1891C10.4542 26.7819 8.53582 28.459 6.92218 30.2082C5.56825 31.6739 4.42901 33.1912 3.52177 34.7497C1.85619 37.6072 0.969727 40.6056 0.969727 43.6968C0.969727 63.1858 36.1962 78.9855 79.6502 78.9855C106.706 78.9855 130.573 72.8598 144.732 63.5328C148.793 60.8575 152.056 57.9192 154.366 54.7867C158.253 51.9618 161.276 48.8741 163.272 45.5938C165.078 42.6263 166.042 39.5042 166.042 36.2807C166.042 16.7918 130.816 0.992053 87.3617 0.992053Z" fill="#EAE6E1"/>
<path d="M166.042 36.2807C166.042 39.5042 165.078 42.6281 163.272 45.5938C161.277 48.8706 158.255 51.9618 154.366 54.785C156.939 51.2986 158.331 47.5699 158.331 43.6951C158.331 24.2062 123.104 8.40821 79.6504 8.40821C58.1017 8.40821 38.5753 12.2933 24.3642 18.5874C19.899 20.5652 15.9601 22.78 12.6445 25.1874C12.6618 25.1616 12.6826 25.1358 12.7017 25.11C14.7793 22.3161 17.6136 19.6802 21.0936 17.2454C35.0866 7.47003 59.5368 0.992053 87.3617 0.992053C130.816 0.992053 166.042 16.7918 166.042 36.2807Z" fill="url(#paint0_linear_11_14)"/>
<path d="M0.969727 43.6968C0.969727 40.4733 1.9341 37.3487 3.73992 34.3829C5.73446 31.1061 8.75744 28.0149 12.6461 25.1917C10.0733 28.6782 8.68126 32.4069 8.68126 36.2816C8.68126 55.7705 43.9077 71.5685 87.3617 71.5685C108.91 71.5685 128.437 67.6834 142.648 61.3893C147.113 59.4116 151.052 57.1967 154.368 54.7894C154.35 54.8151 154.329 54.8409 154.31 54.8667C152.233 57.6606 149.398 60.2965 145.918 62.7313C131.927 72.5084 107.477 78.9864 79.6519 78.9864C36.1962 78.9847 0.969727 63.1857 0.969727 43.6968Z" fill="url(#paint1_linear_11_14)"/>
<path d="M60.077 59.8133H51.9067C51.3682 59.8133 50.8574 59.5796 50.506 59.1724C50.1545 58.7669 50.0021 58.229 50.0853 57.6998L51.0392 51.6531H37.6679C37.1277 51.6531 36.6152 51.4194 36.2654 51.0105C35.9157 50.6033 35.7633 50.0654 35.8482 49.5345L36.9632 42.6544C37.0134 42.3451 37.1433 42.053 37.3389 41.809L53.78 21.217C54.1315 20.7771 54.6578 20.5245 55.224 20.5245H65.7715C66.3117 20.5245 66.8224 20.7582 67.1739 21.1672C67.5254 21.5761 67.6777 22.1139 67.5912 22.6432L64.6149 41.1183H67.1825C67.721 41.1183 68.23 41.3502 68.5815 41.7558C68.933 42.163 69.0871 42.6974 69.004 43.2249L67.9392 50.105C67.8006 51.0036 67.0337 51.6566 66.1178 51.6566H62.9199L61.8967 58.2651C61.7582 59.1638 60.9912 59.8168 60.0753 59.8168L60.077 59.8133ZM59.9731 57.8631L61.2353 49.7046H66.0139L67.0406 43.0651H62.3105L65.6278 22.4731H55.2811L38.8971 42.9946L37.8098 49.7046H53.3333L52.0469 57.8631H59.9731ZM54.4085 43.0651H45.6391L54.457 31.9374C54.5262 31.8515 54.592 31.7673 54.6578 31.6831L57.1371 28.5232L54.4085 43.0634V43.0651ZM49.6836 41.1148H52.7775L53.7367 36.0012L49.6836 41.1148Z" fill="#121212"/>
<path d="M96.972 59.8138H70.5028C69.7808 59.8138 69.1229 59.3928 68.8251 58.7416C68.5273 58.0886 68.6416 57.3205 69.116 56.781L84.2187 39.629C85.9103 37.6856 87.0841 36.1494 87.7057 35.0634C88.2199 34.1648 88.4935 33.3555 88.4935 32.7231C88.4935 31.9224 88.2147 31.5616 88.0052 31.3605C87.7836 31.1475 87.3819 30.8657 86.4747 30.8657C85.5674 30.8657 84.9459 31.1337 84.4698 31.7093C83.9105 32.3863 83.6127 33.4156 83.5885 34.7713C83.5694 35.7611 82.7436 36.567 81.7463 36.567H73.2037C72.6947 36.567 72.203 36.3556 71.855 35.9845C71.507 35.6133 71.3286 35.1116 71.365 34.6081C71.694 30.0323 73.2539 26.3878 75.9999 23.7725C78.7632 21.1435 82.4441 19.8119 86.9439 19.8119C91.12 19.8119 94.5671 20.9786 97.1901 23.2811C99.879 25.6403 101.242 28.735 101.242 32.4774C101.242 35.0308 100.566 37.512 99.2332 39.8523C97.9658 42.0758 95.8224 44.6 92.86 47.3527L91.7588 48.3665H98.2359C98.7778 48.3665 99.2886 48.6002 99.6383 49.0091C99.988 49.4181 100.14 49.9559 100.054 50.4851L98.7917 58.2759C98.6462 59.1677 97.881 59.8138 96.972 59.8138ZM70.7711 57.8635H96.8681L98.0922 50.315H90.5348C90.3079 50.315 89.8872 50.3288 89.2501 50.3597L86.563 50.4851L91.5199 45.9248C94.3334 43.3113 96.3539 40.9435 97.5226 38.8918C98.6878 36.847 99.2782 34.6871 99.2782 32.4757C99.2782 29.3158 98.1389 26.7143 95.8899 24.7399C93.6374 22.7622 90.6282 21.7604 86.9456 21.7604C82.9704 21.7604 79.7448 22.9099 77.3607 25.1798C75.0009 27.4256 73.647 30.601 73.3353 34.6167H81.6286C81.6788 32.8675 82.1238 31.4722 82.9531 30.4722C83.8066 29.4395 84.9926 28.9171 86.4764 28.9171C87.6745 28.9171 88.6493 29.2676 89.3713 29.9584C90.095 30.6509 90.4603 31.5805 90.4603 32.7231C90.4603 33.706 90.1088 34.8177 89.4163 36.0257C88.7324 37.2216 87.4824 38.8643 85.7042 40.9057L70.7729 57.8618L70.7711 57.8635Z" fill="#121212"/>
<path d="M116.62 59.8136H107.385C106.845 59.8136 106.334 59.5799 105.983 59.1709C105.631 58.762 105.481 58.2242 105.565 57.6949L109.754 31.7744H106.469C105.894 31.7744 105.344 31.5012 104.997 31.0459C104.651 30.5888 104.539 29.9891 104.698 29.4393L106.902 21.8461C107.129 21.0677 107.856 20.523 108.673 20.523H122.292C122.832 20.523 123.343 20.7567 123.693 21.164C124.043 21.5712 124.197 22.1073 124.112 22.6365L118.442 58.2688C118.3 59.1641 117.534 59.8119 116.622 59.8119L116.62 59.8136ZM107.527 57.8633H116.516L122.148 22.4733H108.765L106.632 29.8259H112.06L107.529 57.8633H107.527Z" fill="#121212"/>
<path d="M159.304 43.6964C159.285 49.8239 155.457 55.1025 151.357 59.3364C149.279 61.4344 146.975 63.3194 144.447 64.8555C143.675 65.3195 142.701 65.9707 141.924 66.3797C139.943 67.4897 137.455 68.775 135.36 69.6771C134.516 70.0259 133.487 70.5018 132.663 70.8352C131.977 71.105 130.61 71.6153 129.924 71.8834C105.699 80.712 75.8809 81.9268 50.5648 77.5125C35.7148 74.7546 19.1093 69.8523 7.81032 59.4755C-0.335785 51.8291 -2.86705 41.9318 3.87145 32.3969C6.09799 29.06 9.35297 26.7059 12.5681 24.4051C15.7539 22.1353 19.0764 20.0304 22.6101 18.3378C26.1611 16.69 29.8178 15.2896 33.5333 14.0885C65.8424 3.55363 118.353 4.40934 146.916 24.1508C153.33 28.6992 159.317 35.4572 159.3 43.6982L159.304 43.6964ZM157.359 43.6964C157.323 36.0827 151.658 29.9638 145.742 25.7695C117.846 6.61392 65.7126 5.66714 34.141 15.9425C31.4332 16.7965 28.6751 17.8172 26.0572 18.9238C21.689 20.8019 17.2584 22.7573 13.3715 25.5134C10.2948 27.6991 7.75492 30.5738 5.48336 33.5276C0.76883 39.9746 0.799995 47.4045 5.48336 53.867C11.9673 62.7489 23.8705 68.0876 34.1427 71.4417C60.7574 79.8648 94.1227 80.0281 121.023 72.6806C122.273 72.2923 123.914 71.8507 125.156 71.4383L127.881 70.5207C128.108 70.4434 128.336 70.3713 128.561 70.2888C129.252 70.031 129.943 69.7578 130.575 69.5224C135.918 67.5086 141.095 64.8933 145.771 61.6612C152.191 57.3517 157.396 51.8377 157.361 43.6982L157.359 43.6964Z" fill="#121212"/>
<path d="M166.999 36.2799C167.054 46.8319 157.727 53.7463 149.54 58.7964C146.208 60.8566 142.652 62.52 138.999 63.9221C133.557 66.0184 127.868 67.6731 122.177 68.9206C103.142 73.0497 83.3475 73.6098 64.0496 71.0393C47.1099 68.6611 24.4289 62.666 12.9534 49.3595C9.18589 44.9487 6.81045 39.0618 8.01548 33.2471C8.84481 29.307 11.1164 25.8619 13.6632 22.8239C18.6669 16.6862 25.8209 12.7977 32.994 9.69786C41.9885 5.91246 51.5318 3.50169 61.1634 1.97241C89.7345 -2.52609 130.33 -0.0242538 154.611 16.7601C161.024 21.2998 167.009 28.0458 167 36.2799H166.999ZM165.087 36.2799C165.056 28.6592 159.393 22.5284 153.473 18.3254C130.254 2.34012 91.7446 -0.227012 64.3353 3.55496C53.8864 5.00863 43.5121 7.44002 33.7731 11.5158C27.625 14.0933 21.8162 17.4697 16.7589 21.7843C11.6929 26.0131 8.74786 32.4017 9.91134 38.9759C11.8176 48.9643 22.4949 55.8083 31.1691 59.8497C56.8748 71.474 91.4122 72.9156 118.931 67.6044C127.39 65.9565 135.749 63.4856 143.601 59.9356C150.521 56.9699 157.386 52.8185 161.578 46.4797C163.65 43.452 165.089 39.9605 165.089 36.2764L165.087 36.2799Z" fill="#121212"/>
<path d="M67.0382 49.3247L68.0974 42.4075C68.1487 42.0771 68.0021 41.7393 67.7089 41.552C67.5659 41.4603 67.3937 41.4199 67.2251 41.4199H64.4836C63.9925 41.4199 63.6187 40.9793 63.6956 40.4946L66.6936 21.7147C66.7523 21.3512 66.5727 20.9767 66.2172 20.8041C66.0962 20.7454 65.9643 20.7197 65.8324 20.7197H55.343C55.0828 20.7197 54.8336 20.8408 54.6723 21.0464L38.2969 41.7503C38.2053 41.8641 38.1466 42.0036 38.121 42.1468L37.0105 49.064C36.9518 49.4385 37.1424 49.824 37.5199 49.9893C37.6298 50.037 37.7508 50.059 37.8717 50.059H51.3848C51.8759 50.059 52.2497 50.4996 52.1727 50.9843L51.1905 57.2699C51.1319 57.6444 51.3261 58.03 51.7036 58.1952C51.8136 58.2429 51.9345 58.2613 52.0555 58.2613H60.1772C60.5987 58.2613 60.9615 57.9529 61.0238 57.5343L62.0647 50.7383C62.1233 50.3491 62.4605 50.059 62.8563 50.059H66.1952C66.6167 50.059 66.9795 49.7506 67.0418 49.3321L67.0382 49.3247ZM48.515 41.4199C48.2292 41.4199 48.0679 41.0894 48.2438 40.8618L54.8409 32.4613C54.9728 32.2924 55.244 32.4136 55.2074 32.6228L53.833 40.7663C53.7634 41.1445 53.4335 41.4199 53.0487 41.4199H48.515Z" fill="#1A1A1A"/>
<path d="M90.5132 48.7042C90.5132 48.7042 90.5095 48.7042 90.5059 48.7042C90.0514 48.7042 89.8352 48.1498 90.165 47.8414L92.1588 45.9909C95.0359 43.2923 97.1103 40.8324 98.3234 38.6845C99.5659 36.4779 100.196 34.1465 100.196 31.7526C100.196 28.283 98.9501 25.4192 96.4909 23.242C94.061 21.0904 90.8467 20 86.9324 20C82.7103 20 79.2725 21.2483 76.707 23.7083C74.1524 26.1645 72.6974 29.6158 72.3896 33.9629C72.3639 34.3117 72.5545 34.6568 72.899 34.811C73.0126 34.8624 73.1409 34.8845 73.2655 34.8845H81.7537C82.2229 34.8845 82.6004 34.51 82.6114 34.04C82.6407 32.4502 83.0109 31.2129 83.7109 30.3574C84.3742 29.546 85.2759 29.1532 86.4633 29.1532C87.4089 29.1532 88.1309 29.4065 88.666 29.9242C89.1938 30.4345 89.4503 31.1138 89.4503 31.9986C89.4503 32.8137 89.1425 33.7683 88.5377 34.8367C87.8854 35.9859 86.6796 37.5831 84.9497 39.5877L69.9047 56.833C69.6408 57.1341 69.6151 57.5893 69.8717 57.9234C70.0366 58.1401 70.3005 58.2576 70.5754 58.2576H96.916C97.3375 58.2576 97.6967 57.9528 97.7627 57.5343L99.0198 49.7028C99.0784 49.3394 98.9025 48.9685 98.547 48.7923C98.4297 48.7336 98.2941 48.7078 98.1621 48.7078H90.5059" fill="#1A1A1A"/>
<path d="M122.509 20.7967C122.388 20.7379 122.256 20.7159 122.12 20.7159H108.578C108.197 20.7159 107.86 20.9692 107.754 21.3364L105.565 28.9512C105.518 29.1127 105.511 29.2853 105.558 29.4468C105.672 29.8287 106.013 30.0673 106.383 30.0673H110.092C110.466 30.0673 110.752 30.4014 110.689 30.7723L106.449 57.2625C106.39 57.6223 106.566 57.9968 106.922 58.173C107.039 58.2318 107.174 58.2575 107.306 58.2575H116.495C116.916 58.2575 117.275 57.9491 117.341 57.5342L122.989 21.7109C123.048 21.3474 122.868 20.9729 122.509 20.8003V20.7967Z" fill="#1A1A1A"/>
<defs>
<linearGradient id="paint0_linear_11_14" x1="40.5442" y1="-19.6742" x2="162.328" y2="70.1543" gradientUnits="userSpaceOnUse">
<stop stop-color="#17A583"/>
<stop offset="0.1" stop-color="#36AB75"/>
<stop offset="0.35" stop-color="#7BB857"/>
<stop offset="0.57" stop-color="#B2C340"/>
<stop offset="0.76" stop-color="#DACB2F"/>
<stop offset="0.91" stop-color="#F3D024"/>
<stop offset="1" stop-color="#FCD221"/>
</linearGradient>
<linearGradient id="paint1_linear_11_14" x1="126.458" y1="99.671" x2="4.6758" y2="9.84223" gradientUnits="userSpaceOnUse">
<stop stop-color="#17A583"/>
<stop offset="0.1" stop-color="#36AB75"/>
<stop offset="0.35" stop-color="#7BB857"/>
<stop offset="0.57" stop-color="#B2C340"/>
<stop offset="0.76" stop-color="#DACB2F"/>
<stop offset="0.91" stop-color="#F3D024"/>
<stop offset="1" stop-color="#FCD221"/>
</linearGradient>
</defs>
</svg>
