<svg width="31" height="32" viewBox="0 0 31 32" fill="none" xmlns="http://www.w3.org/2000/svg">
<path d="M15.5968 7.87264H15.5967C13.4427 7.87264 11.3762 8.72912 9.85282 10.2525C8.3294 11.776 7.47292 13.8424 7.47292 15.9964C7.47292 18.1504 8.3294 20.2168 9.85282 21.7403C11.3762 23.2637 13.4427 24.1202 15.5967 24.1202C17.7507 24.1202 19.8171 23.2637 21.3405 21.7403C22.864 20.2168 23.7204 18.1504 23.7204 15.9964V15.9962C23.7168 13.8423 22.8603 11.7795 21.3369 10.2561C19.8135 8.73275 17.7507 7.87629 15.5968 7.87264ZM15.6003 21.8935C15.5916 21.8935 15.5831 21.8946 15.5748 21.8968C14.0475 21.8732 12.5917 21.2477 11.5176 20.156C10.4417 19.0589 9.84007 17.5831 9.84715 16.0473C9.85423 14.5113 10.4665 13.0391 11.5529 11.9526C12.6393 10.8662 14.1116 10.2539 15.6475 10.2469C17.1833 10.2398 18.6591 10.8414 19.7563 11.9173C20.8496 12.993 21.476 14.4614 21.4974 15.9971C21.4972 17.5614 20.8742 19.0619 19.77 20.1661C18.6656 21.2705 17.1648 21.8935 15.6003 21.8935ZM8.73825 22.859C8.73041 22.8511 8.72138 22.8447 8.71158 22.8398C8.26826 22.4132 7.56467 22.4097 7.11239 22.8311L7.11234 22.831L7.10961 22.8338L4.92203 25.0357C4.69739 25.2491 4.57155 25.545 4.57155 25.856C4.57155 26.1666 4.69707 26.4621 4.92117 26.6755C5.1303 26.8954 5.41482 27.0215 5.72627 27.0215C6.03763 27.0215 6.333 26.8955 6.54948 26.6753C6.54964 26.6751 6.5498 26.675 6.54995 26.6748L8.73772 24.5015L8.73856 24.5006C9.18699 24.0443 9.18743 23.3122 8.73825 22.859ZM4.92122 5.31014C4.47439 5.75696 4.46828 6.47953 4.90289 6.9339C4.90693 6.94055 4.91179 6.94679 4.91744 6.95247L7.10966 9.15549L7.11051 9.15632C7.32366 9.36553 7.61162 9.48373 7.91489 9.48374L7.91619 9.48372C8.21776 9.4798 8.50806 9.36616 8.73173 9.15819L8.7318 9.15826L8.73496 9.15505C9.18339 8.69874 9.18383 7.96659 8.73465 7.51347L6.56058 5.31061L6.56043 5.31045C6.11077 4.85684 5.37406 4.85729 4.92122 5.31014ZM22.4551 9.14096C22.4613 9.14724 22.4683 9.15261 22.4758 9.15698C22.6942 9.35665 22.9823 9.46933 23.2785 9.46933C23.5785 9.46933 23.866 9.35091 24.0822 9.14257L24.0833 9.1415L26.2863 6.95287L26.2865 6.95264C26.7396 6.49962 26.7396 5.76316 26.2865 5.31014C25.8335 4.85712 25.0971 4.85712 24.644 5.31014L22.4554 7.49876L22.4548 7.49938C22.0064 7.95569 22.0059 8.68784 22.4551 9.14096ZM26.2728 25.048L26.2724 25.0476L24.0981 22.859L24.0979 22.8587C23.6449 22.4057 22.9084 22.4057 22.4554 22.8587C22.0024 23.3118 22.0024 24.0482 22.4554 24.5012L24.6434 26.6892C24.6435 26.6893 24.6436 26.6894 24.6437 26.6895C24.8602 26.9098 25.1557 27.0359 25.4671 27.0359C25.7715 27.0359 26.0638 26.9096 26.2733 26.6887C26.7216 26.2355 26.7209 25.504 26.2728 25.048ZM16.7478 29.9489V26.9359V26.9323V26.8603C16.7478 26.2217 16.2312 25.7092 15.5967 25.7092C14.9619 25.7092 14.4456 26.2255 14.4456 26.8603V29.9489C14.4456 30.5837 14.9619 31.1 15.5967 31.1C16.2315 31.1 16.7478 30.5837 16.7478 29.9489ZM1.6478 17.1511H4.73635C5.37495 17.1511 5.88746 16.6346 5.88746 16C5.88746 15.3652 5.37113 14.8489 4.73635 14.8489H1.6478C1.01301 14.8489 0.49668 15.3652 0.49668 16C0.49668 16.6348 1.01301 17.1511 1.6478 17.1511ZM14.4456 2.05112V5.13967C14.4456 5.77827 14.9621 6.29078 15.5967 6.29078C16.2315 6.29078 16.7478 5.77445 16.7478 5.13967V2.05112C16.7478 1.41633 16.2315 0.9 15.5967 0.9C14.9619 0.9 14.4456 1.41633 14.4456 2.05112ZM29.5456 17.1511C30.1803 17.1511 30.6967 16.6348 30.6967 16C30.6967 15.6951 30.5701 15.404 30.3585 15.1884C30.145 14.971 29.8492 14.8489 29.5456 14.8489H26.457C25.8184 14.8489 25.3059 15.3654 25.3059 16C25.3059 16.6348 25.8222 17.1511 26.457 17.1511H29.5456Z" fill="#EAE6E1" stroke="#EAE6E1" stroke-width="0.2" stroke-linejoin="round"/>
</svg>
